<svg  viewBox="0 0 104 131" version="1.1" xmlns="http://www.w3.org/2000/svg">
<path  stroke-width="0.09375" opacity="1.00" d=" M 32.36 35.97 C 31.76 31.31 36.28 26.89 40.92 27.65 C 43.93 27.74 45.81 30.35 47.80 32.25 C 57.93 42.44 68.08 52.60 78.28 62.73 C 80.27 64.78 82.92 66.84 83.00 69.97 C 83.34 72.71 81.68 75.05 79.81 76.84 C 68.07 88.43 56.52 100.22 44.75 111.79 C 40.59 115.73 32.87 112.54 32.43 106.91 C 31.93 104.28 33.14 101.72 35.02 99.94 C 44.87 90.18 54.62 80.32 64.47 70.56 C 55.56 61.47 46.49 52.53 37.49 43.52 C 35.41 41.33 32.44 39.30 32.36 35.97 Z" />
</svg>
