<?xml version="1.0" encoding="UTF-8" ?>
<!DOCTYPE svg PUBLIC "-//W3C//DTD SVG 1.1//EN" "http://www.w3.org/Graphics/SVG/1.1/DTD/svg11.dtd">
<svg width="684pt" height="376pt" viewBox="0 0 684 376" version="1.1" xmlns="http://www.w3.org/2000/svg">
<path fill="#ffffff" stroke="#ffffff" stroke-width="0.09375" opacity="0.05" d=" M 145.17 47.88 C 158.87 44.06 174.13 46.23 186.18 53.81 C 201.71 63.24 211.23 81.29 210.63 99.42 C 219.97 104.47 225.76 115.32 224.37 125.91 C 223.03 138.82 211.05 149.55 198.04 149.32 C 162.70 149.31 127.35 149.40 92.01 149.27 C 74.92 149.03 59.43 135.05 57.38 118.10 C 54.88 102.41 64.14 85.93 78.75 79.78 C 88.65 75.36 100.44 75.90 110.07 80.79 C 115.58 65.05 129.03 52.23 145.17 47.88 Z" />
<path fill="#ffffff" stroke="#ffffff" stroke-width="0.09375" opacity="0.05" d=" M 570.12 60.90 C 583.83 57.05 599.11 59.22 611.17 66.80 C 626.70 76.23 636.23 94.29 635.62 112.41 C 646.47 118.19 652.22 131.83 648.39 143.58 C 645.07 154.38 634.39 162.51 623.01 162.32 C 588.34 162.35 553.68 162.33 519.01 162.33 C 508.72 162.53 498.45 158.16 491.54 150.51 C 481.86 140.21 479.27 124.06 485.17 111.23 C 489.92 100.43 500.23 92.31 511.86 90.32 C 519.72 88.87 527.95 90.24 535.07 93.79 C 540.57 78.07 554.00 65.26 570.12 60.90 Z" />
<path fill="#ffffff" stroke="#ffffff" stroke-width="0.09375" opacity="0.05" d=" M 156.07 220.10 C 163.22 218.84 170.81 218.63 177.92 220.14 C 179.96 220.33 182.02 220.44 184.08 220.46 L 180.77 221.08 C 182.72 221.32 184.67 221.50 186.63 221.67 L 186.43 222.42 C 190.03 223.24 193.47 224.60 196.76 226.27 C 197.57 226.78 198.37 227.29 199.18 227.82 C 201.25 229.10 203.38 230.29 205.34 231.76 L 205.60 232.58 L 206.33 232.43 C 208.05 234.29 210.19 235.72 211.83 237.67 L 212.19 237.49 C 213.36 239.74 215.67 241.09 216.81 243.37 L 217.27 243.57 C 219.64 246.54 221.07 250.16 223.69 252.93 C 223.65 253.19 223.58 253.72 223.54 253.99 C 225.39 256.35 225.86 259.37 227.12 262.03 C 227.24 262.73 227.49 264.11 227.62 264.81 L 228.37 264.25 C 228.42 265.71 228.48 267.17 228.54 268.64 L 229.35 268.47 C 229.44 270.50 229.55 272.53 229.62 274.57 L 230.27 274.59 C 230.36 277.88 230.52 281.17 230.53 284.46 C 231.84 285.21 233.15 285.98 234.46 286.74 L 234.41 287.68 L 235.26 287.39 C 236.98 289.41 239.26 290.91 240.75 293.14 C 241.77 294.60 242.73 296.11 243.49 297.74 C 243.68 297.70 244.06 297.62 244.25 297.58 C 244.33 298.38 244.47 300.00 244.54 300.80 L 245.27 300.13 C 245.42 301.32 245.70 303.69 245.85 304.87 L 246.41 302.59 C 246.43 306.08 247.73 309.43 247.54 312.95 C 247.67 316.32 246.65 319.56 246.29 322.89 L 245.63 322.08 C 245.56 322.95 245.40 324.70 245.32 325.57 L 244.19 325.53 C 244.27 325.86 244.44 326.53 244.52 326.86 C 242.87 328.93 241.67 331.31 240.20 333.50 L 239.69 333.44 C 239.50 333.78 239.12 334.47 238.93 334.81 C 238.15 335.47 237.39 336.17 236.66 336.90 L 236.48 337.74 L 235.41 337.42 L 235.51 338.17 C 233.51 339.46 231.47 340.71 229.30 341.71 L 229.34 342.71 C 229.00 342.61 228.33 342.42 227.99 342.32 C 227.05 343.06 226.00 343.57 224.82 343.85 C 221.35 345.03 217.63 345.27 213.99 345.34 C 172.02 345.33 130.04 345.34 88.07 345.33 C 84.07 345.39 80.12 344.71 76.17 344.27 C 76.63 344.12 77.57 343.83 78.03 343.69 C 76.86 343.65 74.51 343.57 73.33 343.53 L 73.50 342.65 C 72.72 342.60 71.17 342.51 70.39 342.46 C 70.39 342.25 70.38 341.82 70.37 341.61 C 67.63 341.14 65.42 339.35 62.89 338.33 C 60.76 336.71 58.86 334.82 56.67 333.28 C 56.43 333.06 55.94 332.61 55.69 332.39 C 52.55 328.36 48.57 324.69 47.26 319.55 L 46.25 319.54 C 46.29 319.16 46.35 318.41 46.38 318.04 C 45.81 317.06 45.34 316.04 44.98 314.98 C 43.85 311.77 43.75 308.33 42.84 305.06 C 42.71 302.35 42.74 299.63 42.84 296.92 C 43.80 293.66 43.67 290.13 45.11 287.02 C 45.23 286.39 45.46 285.12 45.57 284.49 L 46.34 284.53 C 46.42 283.77 46.58 282.24 46.66 281.48 L 47.33 281.75 C 48.87 278.63 50.31 275.29 52.95 272.93 C 54.64 271.25 55.68 268.97 57.79 267.74 C 61.49 264.55 65.59 261.41 70.45 260.36 L 70.36 259.46 C 71.14 259.42 72.72 259.33 73.50 259.29 L 73.24 258.48 C 82.57 256.18 92.46 256.12 101.72 258.81 L 101.41 259.42 C 102.17 259.45 103.69 259.52 104.45 259.55 L 104.39 260.74 C 105.38 260.71 107.35 260.65 108.34 260.63 C 109.28 257.01 110.86 253.57 112.63 250.30 L 113.64 250.41 C 113.58 250.04 113.47 249.32 113.42 248.95 C 115.13 247.08 116.21 244.73 118.01 242.94 C 119.88 241.14 121.40 239.02 123.00 236.98 C 127.34 233.96 130.89 229.90 135.78 227.65 C 139.29 225.15 143.43 223.48 147.62 222.57 L 147.54 221.68 C 148.91 221.60 150.27 221.54 151.64 221.49 C 151.57 221.29 151.41 220.89 151.33 220.69 C 152.91 220.52 154.49 220.32 156.07 220.10 Z" />
<path fill="#ffffff" stroke="#ffffff" stroke-width="0.09375" opacity="0.05" d=" M 522.91 301.89 C 530.53 299.53 538.92 299.96 546.35 302.82 C 558.21 307.09 567.30 317.80 570.00 330.06 C 570.62 333.04 570.69 336.08 570.78 339.12 C 576.67 342.57 581.07 348.97 580.76 355.98 C 581.29 363.73 576.04 371.11 569.00 374.03 C 565.52 375.53 561.69 375.57 557.98 375.51 C 534.00 375.48 510.02 375.51 486.04 375.49 C 478.55 375.59 471.09 372.50 466.07 366.91 C 459.70 360.01 457.38 349.57 460.58 340.71 C 463.05 332.90 469.51 326.91 477.05 324.01 C 482.30 322.51 487.87 322.53 493.19 323.72 C 494.72 324.42 496.31 325.03 497.91 325.61 C 501.64 314.25 511.43 305.14 522.91 301.89 Z" />
</svg>
