<svg viewBox="0 0 101 104" version="1.1" xmlns="http://www.w3.org/2000/svg">
<path stroke-width="0.09375" opacity="1.00" d=" M 21.93 27.86 C 18.74 23.67 24.97 17.63 29.01 21.01 C 37.70 29.36 46.05 38.06 54.66 46.50 C 62.97 38.18 71.23 29.82 79.61 21.58 C 82.45 18.58 88.34 20.78 88.17 24.99 C 88.39 27.24 86.74 28.87 85.26 30.28 C 77.40 38.03 69.67 45.90 61.81 53.65 C 69.87 61.78 77.99 69.85 86.09 77.94 C 87.24 79.05 88.29 80.39 88.23 82.08 C 88.60 86.18 83.03 88.83 80.03 86.11 C 71.55 77.74 63.16 69.29 54.75 60.85 C 47.16 68.22 39.76 75.78 32.27 83.25 C 30.48 84.90 28.84 87.48 26.05 87.21 C 21.85 87.24 19.39 81.44 22.59 78.58 C 30.84 70.21 39.23 61.96 47.50 53.61 C 39.00 45.01 30.24 36.64 21.93 27.86 Z" />
</svg>
