<?xml version="1.0" encoding="UTF-8" ?>
<!DOCTYPE svg PUBLIC "-//W3C//DTD SVG 1.1//EN" "http://www.w3.org/Graphics/SVG/1.1/DTD/svg11.dtd">
<svg width="171pt" height="171pt" viewBox="0 0 171 171" version="1.1" xmlns="http://www.w3.org/2000/svg">
<path fill="#e7e7eb" stroke="#e7e7eb" stroke-width="0.09375" opacity="1.00" d=" M 84.47 13.54 C 87.70 10.62 93.38 12.03 94.94 16.06 C 95.92 19.18 95.39 22.53 95.53 25.76 C 110.30 27.41 124.35 34.69 134.09 45.93 C 142.24 55.10 147.31 66.85 148.76 79.00 C 152.77 79.26 157.75 77.90 160.82 81.25 C 164.11 84.57 162.35 90.82 157.91 92.13 C 154.89 92.60 151.81 92.35 148.76 92.39 C 147.12 107.09 139.94 121.07 128.82 130.84 C 119.61 139.11 107.77 144.27 95.50 145.75 C 95.38 149.08 96.00 152.60 94.79 155.79 C 93.02 159.69 87.35 160.73 84.27 157.78 C 80.95 154.66 82.29 149.72 81.93 145.69 C 66.92 144.05 52.74 136.47 42.96 124.99 C 35.07 115.87 30.17 104.32 28.72 92.37 C 25.54 92.28 22.26 92.74 19.14 91.97 C 14.85 90.37 13.57 84.12 16.95 81.00 C 20.11 77.96 24.84 79.24 28.77 79.00 C 30.47 63.89 38.06 49.54 49.71 39.77 C 58.77 32.02 70.18 27.15 82.00 25.75 C 82.29 21.69 80.83 16.49 84.47 13.54 M 82.18 39.24 C 74.06 40.38 66.26 43.70 59.81 48.77 C 48.74 57.28 41.98 71.04 41.86 84.99 C 41.57 96.46 45.85 107.90 53.35 116.55 C 61.90 126.53 74.86 132.57 88.01 132.65 C 102.72 133.07 117.41 125.90 126.19 114.11 C 133.82 104.21 137.10 91.15 135.21 78.81 C 133.38 65.74 125.64 53.62 114.54 46.49 C 105.13 40.21 93.37 37.61 82.18 39.24 Z" />
<path fill="#e7e7eb" stroke="#e7e7eb" stroke-width="0.09375" opacity="1.00" d=" M 84.20 59.29 C 93.00 57.68 102.42 60.93 108.48 67.47 C 116.86 76.33 117.98 90.99 110.88 100.95 C 104.06 111.28 89.68 115.41 78.35 110.49 C 67.99 106.31 61.11 95.08 62.01 83.95 C 62.52 71.87 72.29 61.15 84.20 59.29 Z" />
</svg>
