<?xml version="1.0" encoding="UTF-8" ?>
<!DOCTYPE svg PUBLIC "-//W3C//DTD SVG 1.1//EN" "http://www.w3.org/Graphics/SVG/1.1/DTD/svg11.dtd">
<svg  viewBox="0 0 163 181" version="1.1" xmlns="http://www.w3.org/2000/svg">
<path fill="#88869d" stroke="#88869d" stroke-width="0.09375" opacity="1.00" d=" M 69.20 12.20 C 81.71 10.05 95.01 12.49 105.80 19.25 C 119.59 27.69 128.93 42.91 130.18 59.04 C 131.27 71.09 127.49 82.92 122.81 93.86 C 113.29 115.05 99.79 134.16 85.25 152.17 C 83.41 154.73 80.40 156.96 77.07 156.21 C 74.22 155.78 72.34 153.43 70.68 151.30 C 55.71 132.61 41.67 112.80 32.39 90.60 C 27.00 77.69 24.02 63.03 28.14 49.31 C 33.29 30.44 49.92 15.45 69.20 12.20 M 73.38 45.59 C 68.22 47.00 63.73 50.71 61.48 55.58 C 58.09 62.49 59.67 71.48 65.25 76.79 C 70.05 81.58 77.56 83.40 84.00 81.24 C 92.87 78.59 98.64 68.67 96.51 59.63 C 94.54 49.49 83.31 42.60 73.38 45.59 Z" />
</svg>
