<?xml version="1.0" encoding="UTF-8"?>
<svg id="Capa_2" data-name="Capa 2" xmlns="http://www.w3.org/2000/svg" viewBox="0 0 94.5 79.52">
  <defs>
    <style>
      .cls-1 {
        fill: #e7e7eb;
        stroke: #e7e7eb;
        stroke-miterlimit: 10.43;
        stroke-width: .09px;
      }
    </style>
  </defs>
  <g id="Layer_1" data-name="Layer 1">
    <path class="cls-1" d="M2.99,78.68c-2.63-1.3-3.37-4.7-2.16-7.22,4.07-9.42,8.23-18.81,12.38-28.21.73-1.73,1.6-3.7.59-5.51C9.47,27.69,4.84,17.75.52,7.69-1.49,3.55,3.35-1.44,7.55.46c27.31,11.06,54.56,22.27,81.85,33.37,1.66.65,3.44,1.38,4.39,3.02,1.69,2.96.05,7.18-3.27,8.11-27.14,11.2-54.27,22.37-81.39,33.6-1.92.76-4.32,1.54-6.14.13Z"/>
  </g>
</svg>