<?xml version="1.0" encoding="utf-8"?>
<!-- Generator: Adobe Illustrator 28.3.0, SVG Export Plug-In . SVG Version: 6.00 Build 0)  -->
<svg version="1.1" id="Capa_1" xmlns="http://www.w3.org/2000/svg" xmlns:xlink="http://www.w3.org/1999/xlink" x="0px" y="0px"
	 viewBox="0 0 600 600" style="enable-background:new 0 0 600 600;" xml:space="preserve">
<style type="text/css">
	.st0{opacity:0.36;fill:#FFED66;stroke:#FFED66;stroke-width:9.375000e-02;}
	.st1{opacity:0.75;fill:#FFED66;stroke:#FFED66;stroke-width:9.375000e-02;}
	.st2{fill:#FFED66;stroke:#FFED66;stroke-width:9.375000e-02;}
	.st3{fill:#FFFFFF;stroke:#FFFFFF;stroke-width:9.375000e-02;}
</style>
<path class="st0" d="M186.9,127.5c34-22.4,74.8-34.3,115.5-33.7c45.1,0.3,89.8,16.1,125.1,44.1c33.4,26.2,58.4,63,70.3,103.8
	c4,12.7,5.5,26.1,8.5,39v37.7c-4.5,27.1-10.8,54.3-24.4,78.5c-25.3,47.8-70.2,84.8-122,100.3c-13.3,4.3-27.2,5.8-40.7,9h-37.7
	c-26-4.4-52.2-10.2-75.6-22.8c-43.2-22.1-78.1-59.9-96.5-104.8c-18.6-44.7-20.5-95.9-5.7-141.9C117.9,192.2,147.9,153.1,186.9,127.5
	 M280.2,101.7c-67.6,6.1-130.1,49.8-159.4,111C100,255,95.2,304.7,107.2,350.3c11.2,43.5,37.9,82.9,74,109.6
	c34,25.4,76.3,39.4,118.8,39.2c42.5,0.2,84.8-13.8,118.8-39.3c36.1-26.7,62.7-66,74-109.5c10.4-40,8.2-83.3-6.8-121.9
	c-15.8-41.3-45.8-76.9-83.8-99.5C365.9,107,322.4,97.5,280.2,101.7z"/>
<path class="st1" d="M275.9,118.1c39.8-5.1,81.1,3.3,115.5,23.9c35.2,20.8,63.1,53.7,77.5,92c15.6,40.7,15.8,87,0.6,127.8
	c-12.6,34.2-35.8,64.4-65.5,85.4c-33.9,24.3-76.4,36.1-118,33.1c-40.1-2.6-79.1-19.2-108.9-46.2c-26.7-23.8-46-55.7-54.8-90.4
	c-12-46.6-4.6-98,20.5-139.1C171,157.6,221.4,124.6,275.9,118.1 M275.9,127.4c-58.4,7.2-111.3,46.9-134.9,100.7
	c-18.5,41-20,89.2-4.1,131.3c13.7,36.9,40.6,68.7,74.6,88.5c30.7,18.1,67,26.2,102.5,23c36.8-3.1,72.5-18.5,100-43.2
	c24.8-22.1,43.1-51.4,51.7-83.4c10.9-39.9,7-83.7-11.2-120.8c-16.5-34.3-44.7-62.7-78.8-79.6C345,128.6,309.8,122.9,275.9,127.4z"/>
<path class="st2" d="M278.2,145.6c34-4.6,69.5,2.4,99,20c31.1,18.2,55.5,47.7,67.4,81.8c13.5,38,11.3,81.3-6.1,117.7
	c-14.8,31.5-40.7,57.6-72,72.8c-33.8,16.6-73.8,20.1-110,9.7c-32.5-9.1-61.8-29.5-81.9-56.7c-21.3-28.5-32.1-64.6-30.1-100.1
	c1.7-35.6,16.3-70.4,40.6-96.6C209.1,167.7,242.7,150.2,278.2,145.6z"/>
<path class="st3" d="M173.2,161.9c7.1-19.5,27.6-32.4,48.2-31.2c4.3,0.6,8.5,1.4,12.7,2.6c7.7,2.6,14.6,7.3,20.3,13
	c7.9,8.8,11.9,20.4,12.3,32.1c5.5,4.3,11.1,9.4,12.2,16.7c3.5,13.9-8.8,28.3-22.8,28.3c-31.9,0.3-63.7,0-95.6,0.2
	c-6.1,0-12.1-0.9-17.7-3.4c-2.5-1.4-4.9-3-7.3-4.7c-4-3.6-7.1-8.1-9.3-13c-0.9-3.3-1.6-6.6-2.2-10c-0.5-14.7,9.7-28.3,23.6-32.8
	c3.8-0.8,7.7-1.2,11.5-1.3C164,158.8,168.7,160.1,173.2,161.9z"/>
<path class="st3" d="M421.6,175.7c5.1-2.6,10.6-4.4,16.2-5.5c2.7-0.3,5.5-0.5,8.2-0.5c13.8,0.4,27.4,6.4,36.3,17.1
	c7.5,8.4,10.6,19.6,11.2,30.6c6.6,4.9,12.2,11.5,12.7,20.1v2.8c-0.9,11.2-10.1,20.4-21.1,22c-1.7,0-5,0.2-6.7,0.2
	c-5.8,0-11.5,0-17.3,0c-2.9,0-5.8,0-8.7,0c-5.8,0-11.7,0-17.5,0c-17.3-0.1-34.7,0.3-52-0.2c-14.1-0.4-27.6-10.6-30.9-24.5
	c-4.1-14.5,3.9-30.7,17.4-37c9.6-5.1,21-3.9,30.8-0.2c1-2.2,2.1-4.4,3.2-6.6c2.8-5.2,6.7-9.6,11.1-13.5
	C416.7,178.8,419.1,177.2,421.6,175.7z"/>
<path class="st3" d="M137.5,341.6c5.5-2.1,11.4-3.2,17.3-3.5c11.9,0.1,23.9,3.9,32.9,11.8c10.6,8.7,16,22.3,16.4,35.9
	c8.6,5.8,14.6,15.7,12.3,26.4c-1.6,5.8-5,10.8-9.7,14.4c-3,1.6-6.2,2.9-9.3,4.1c-8.9,0.5-17.7,0.2-26.6,0.3c-3.4,0-6.7,0-10.1,0
	c-23.1-0.2-46.2,0.5-69.2-0.3c-19.6-1.3-35-22.7-28.4-41.7c5.6-19.5,30-28.7,47.7-19.6c0.9-2.1,1.8-4.1,2.8-6.2
	c1.6-2.7,3.5-5.3,5.4-7.8c3.2-3.7,7-7,11.1-9.7C132.5,344.1,135,342.8,137.5,341.6z"/>
</svg>
