<?xml version="1.0" encoding="utf-8"?>
<!-- Generator: Adobe Illustrator 28.3.0, SVG Export Plug-In . SVG Version: 6.00 Build 0)  -->
<svg version="1.1" id="Capa_1" xmlns="http://www.w3.org/2000/svg" xmlns:xlink="http://www.w3.org/1999/xlink" x="0px" y="0px"
	 viewBox="0 0 600 600" style="enable-background:new 0 0 600 600;" xml:space="preserve">
<style type="text/css">
	.st0{opacity:0.32;fill:#CDCFD2;stroke:#CDCFD2;stroke-width:9.375000e-02;enable-background:new    ;}
	.st1{opacity:0.69;fill:#CDCFD2;stroke:#CDCFD2;stroke-width:9.375000e-02;enable-background:new    ;}
	.st2{fill:#FFED66;stroke:#FFED66;stroke-width:9.375000e-02;}
	.st3{fill:#CDCFD2;stroke:#CDCFD2;stroke-width:9.375000e-02;}
	.st4{fill:#FFFFFF;stroke:#FFFFFF;stroke-width:9.375000e-02;}
</style>
<path class="st0" d="M186.9,127.5c34-22.4,74.8-34.3,115.5-33.7c45.1,0.3,89.8,16.1,125.1,44.1c33.4,26.2,58.4,63,70.3,103.8
	c4,12.7,5.5,26.1,8.5,39v37.7c-4.5,27.1-10.8,54.3-24.4,78.5c-25.3,47.8-70.2,84.8-122,100.3c-13.3,4.3-27.2,5.8-40.7,9h-37.7
	c-26-4.4-52.2-10.2-75.6-22.8c-43.2-22.1-78.1-59.9-96.5-104.8c-18.6-44.7-20.5-95.9-5.7-141.9C117.9,192.2,147.9,153.1,186.9,127.5
	 M280.2,101.7c-67.6,6.1-130.1,49.8-159.4,111c-20.8,42.3-25.6,92-13.6,137.6c11.2,43.5,37.9,82.9,74,109.6
	c34,25.4,76.3,39.4,118.8,39.2c42.5,0.2,84.8-13.8,118.8-39.3c36.1-26.7,62.7-66,74-109.5c10.4-40,8.2-83.3-6.8-121.9
	c-15.8-41.3-45.8-76.9-83.8-99.5C365.9,107,322.4,97.5,280.2,101.7z"/>
<path class="st1" d="M275.9,118.1c39.8-5.1,81.1,3.3,115.5,23.9c35.2,20.8,63.1,53.7,77.5,92c15.6,40.7,15.8,87,0.6,127.8
	c-12.6,34.2-35.8,64.4-65.5,85.4c-33.9,24.3-76.4,36.1-118,33.1c-40.1-2.6-79.1-19.2-108.9-46.2c-26.7-23.8-46-55.7-54.8-90.4
	c-12-46.6-4.6-98,20.5-139.1C171,157.6,221.4,124.6,275.9,118.1 M275.9,127.4c-58.4,7.2-111.3,46.9-134.9,100.7
	c-18.5,41-20,89.2-4.1,131.3c13.7,36.9,40.6,68.7,74.6,88.5c30.7,18.1,67,26.2,102.5,23c36.8-3.1,72.5-18.5,100-43.2
	c24.8-22.1,43.1-51.4,51.7-83.4c10.9-39.9,7-83.7-11.2-120.8c-16.5-34.3-44.7-62.7-78.8-79.6C345,128.6,309.8,122.9,275.9,127.4z"/>
<path class="st2" d="M278.2,145.6c34-4.6,69.5,2.4,99,20c31.1,18.2,55.5,47.7,67.4,81.8c13.5,38,11.3,81.3-6.1,117.7
	c-14.8,31.5-40.7,57.6-72,72.8c-33.8,16.6-73.8,20.1-110,9.7c-32.5-9.1-61.8-29.5-81.9-56.7c-21.3-28.5-32.1-64.6-30.1-100.1
	c1.7-35.6,16.3-70.4,40.6-96.6C209.1,167.7,242.7,150.2,278.2,145.6z"/>
<g>
	<path class="st3" d="M148.6,116.3h2.8c-0.4,0.6-1.3,1.8-1.7,2.4C149.4,118.1,148.9,116.9,148.6,116.3z"/>
	<path class="st4" d="M208.6,173.1c25.5-18.4,56.9-28.8,88.4-29c35.5-0.5,71.1,11.7,98.6,34.2c1.5,1.3,3.2,2.6,4.4,4.2
		c2,4.9,4.5,9.7,7.4,14.2c4.9,7.8,8,16.4,11.8,24.7c3.8,1.6,8.7,2.7,10.2,7c1.5,4.6-2.6,8.1-4.9,11.5c2.3,13.8,4.2,27.7,3.3,41.7
		c-0.4,11.9-3.1,23.6-5.8,35.2c4.5,4.6,9.6,11.1,5.9,17.7c-2.4,7.2-10.5,8-16.9,8.6c-12,24.7-31.5,45.6-54.5,60.4
		c-5.3,2.9-6.8,9.1-9.9,13.8c-10,15.2-31.7,21.3-47.9,12.7c-6.9-4.2-15-2.7-22.6-2.1c-2.8,2.5-5.2,6.7-9.4,6.3
		c-4.4,0.3-6.7-4.1-9.4-6.8c-16.1-2.7-32.2-6.2-47.1-13.1c-9.5-4.1-18-10.2-27.4-14.5c-11.4-11.4-19.5-25.8-26-40.5
		c-15.6-36-16.6-78-2.8-114.8C164.5,216.2,183.8,190.9,208.6,173.1 M253.6,182.9c-4.1,2.7-3.7,9.6,1.1,11.4
		c4.6,3.1,10.6-1.8,9.6-6.9C263.8,182.4,257.5,179.7,253.6,182.9 M287.3,186.1c-9.6,3.3-11.4,18.3-2.1,23c7.3,5.2,18.8,0.1,19.5-9
		C306.8,190.7,296.1,182,287.3,186.1 M253.8,225.4c-9.4,2.5-17.1,11.1-17.6,21c-1.9,12.4,8.1,24.2,20.2,25.9
		c13,2.6,26.2-7.7,27.4-20.8C286.5,235.3,269.5,220.1,253.8,225.4 M417.5,225c-2.1,1.3-3.1,3.9-3.3,6.3c0.3,5.6,8.4,8.8,11.9,4
		C431.3,230.3,423.6,220.5,417.5,225 M383.6,230.1c-12.8,2.2-19.2,19.7-10,29.2c7.2,9,22.9,8,28.7-2.2
		C410.7,244.9,398.3,226,383.6,230.1 M179.5,235.4c-4.5,1.8-5.3,8.8-1.3,11.5c3.4,3.2,10.5,1.1,10.6-3.9
		C190,237.9,184.4,232.8,179.5,235.4 M216.5,268.9c-6.1,1.5-10.2,8.8-7.6,14.7c2.9,8.1,16.3,9,19.7,0.9
		C233,277.1,224.8,266.4,216.5,268.9 M302.5,277.3c-5.6,1.3-9.3,7.5-7.4,13.1c2,7.9,14.2,9.9,18.3,2.7
		C318.7,286.1,310.9,274.7,302.5,277.3 M412.2,319.3c-7.6,2.2-10.2,13.4-3.7,18.2c5.9,5.9,17.8,1.8,18-6.8
		C427.4,323.3,419.5,316.4,412.2,319.3 M197.8,334.8c-3,0.5-5.1,3.2-5.8,6c-0.1,5.4,7,10,11.2,5.8
		C208.5,342.7,204.2,333.4,197.8,334.8 M366.9,344.9c-6,2.9-5.5,13.1,1,15c5,2.8,12.2-1.2,11.6-7.1
		C380.6,346.1,372.3,341.1,366.9,344.9 M307.6,361.7c-17.2,3.4-29.7,21.2-27.2,38.5c1.8,17,18.2,30.8,35.2,30.1
		c16,0.3,31.1-12.5,33.4-28.4c2.2-10.2-1.3-21-7.8-29C333.3,363.2,319.7,359.2,307.6,361.7 M264,419.3c-2.9,1.2-4.9,4.6-3.8,7.7
		c0.9,6.5,12.2,6.8,12.9,0C274.5,422,268.8,416.5,264,419.3z"/>
	<path class="st3" d="M253.6,182.9c3.9-3.1,10.2-0.4,10.7,4.5c1,5.1-4.9,10-9.6,6.9C249.9,192.5,249.5,185.6,253.6,182.9z"/>
	<path class="st3" d="M400,182.6c16,12.2,27.7,29.3,37.1,46.9c17.9,35.7,21.3,78.4,8.9,116.4c-9.7,30.6-29.3,57.8-55.1,76.8
		c-25.9,19.4-58.1,30.3-90.5,30.5c-37.5,0.6-74.9-13.1-103-37.9c-5.2-4.7-10.7-9.4-14.6-15.3c9.4,4.3,17.9,10.4,27.4,14.5
		c14.9,6.9,31,10.5,47.1,13.1c2.7,2.7,5,7.1,9.4,6.8c4.3,0.4,6.6-3.8,9.4-6.3c7.6-0.7,15.7-2.2,22.6,2.1
		c16.2,8.6,37.9,2.5,47.9-12.7c3.1-4.7,4.6-10.9,9.9-13.8c23.1-14.8,42.5-35.7,54.5-60.4c6.4-0.6,14.5-1.4,16.9-8.6
		c3.7-6.7-1.4-13.2-5.9-17.7c2.7-11.6,5.4-23.3,5.8-35.2c0.9-14-1-28-3.3-41.7c2.3-3.4,6.5-6.9,4.9-11.5c-1.5-4.4-6.4-5.5-10.2-7
		c-3.8-8.3-6.9-17-11.8-24.7C404.5,192.3,402,187.6,400,182.6z"/>
	<path class="st3" d="M287.3,186.1c8.8-4.2,19.5,4.6,17.4,14c-0.7,9.1-12.2,14.2-19.5,9C275.9,204.4,277.7,189.4,287.3,186.1z"/>
	<path class="st3" d="M253.8,225.4c15.7-5.3,32.7,10,30,26.1c-1.2,13.1-14.4,23.4-27.4,20.8c-12.1-1.6-22.2-13.4-20.2-25.9
		C236.7,236.5,244.3,227.9,253.8,225.4z"/>
	<path class="st3" d="M417.5,225c6.1-4.5,13.8,5.3,8.6,10.3c-3.5,4.8-11.6,1.5-11.9-4C414.4,228.9,415.4,226.3,417.5,225z"/>
	<path class="st3" d="M383.6,230.1c14.7-4.1,27.1,14.8,18.7,27c-5.7,10.1-21.4,11.2-28.7,2.2C364.4,249.8,370.8,232.3,383.6,230.1z"
		/>
	<path class="st3" d="M179.5,235.4c4.9-2.6,10.6,2.5,9.3,7.6c-0.1,5-7.2,7.1-10.6,3.9C174.2,244.2,175,237.2,179.5,235.4z"/>
	<path class="st3" d="M216.5,268.9c8.3-2.5,16.6,8.1,12.1,15.6c-3.4,8.1-16.8,7.2-19.7-0.9C206.3,277.7,210.4,270.4,216.5,268.9z"/>
	<path class="st3" d="M302.5,277.3c8.4-2.6,16.3,8.8,10.9,15.7c-4.1,7.2-16.3,5.2-18.3-2.7C293.2,284.8,296.8,278.6,302.5,277.3z"/>
	<path class="st3" d="M412.2,319.3c7.3-3,15.2,3.9,14.3,11.5c-0.2,8.5-12.1,12.7-18,6.8C402,332.7,404.6,321.5,412.2,319.3z"/>
	<path class="st3" d="M197.8,334.8c6.4-1.3,10.7,7.9,5.4,11.8c-4.2,4.3-11.3-0.4-11.2-5.8C192.7,338,194.8,335.2,197.8,334.8z"/>
	<path class="st3" d="M366.9,344.9c5.5-3.8,13.8,1.2,12.7,7.9c0.5,5.9-6.6,9.9-11.6,7.1C361.4,358,360.8,347.8,366.9,344.9z"/>
	<path class="st3" d="M307.6,361.7c12.1-2.6,25.7,1.5,33.7,11.2c6.4,8,9.9,18.8,7.8,29c-2.3,15.9-17.4,28.7-33.4,28.4
		c-17,0.7-33.4-13-35.2-30.1C277.9,382.9,290.4,365.1,307.6,361.7z"/>
	<path class="st3" d="M264,419.3c4.9-2.8,10.5,2.7,9.1,7.7c-0.6,6.8-12,6.5-12.9,0C259,423.9,261.1,420.6,264,419.3z"/>
</g>
<path class="st4" d="M173.2,161.9c7.1-19.5,27.6-32.4,48.2-31.2c4.3,0.6,8.5,1.4,12.7,2.6c7.7,2.6,14.6,7.3,20.3,13
	c7.9,8.8,11.9,20.4,12.3,32.1c5.5,4.3,11.1,9.4,12.2,16.7c3.5,13.9-8.8,28.3-22.8,28.3c-31.9,0.3-63.7,0-95.6,0.2
	c-6.1,0-12.1-0.9-17.7-3.4c-2.5-1.4-4.9-3-7.3-4.7c-4-3.6-7.1-8.1-9.3-13c-0.9-3.3-1.6-6.6-2.2-10c-0.5-14.7,9.7-28.3,23.6-32.8
	c3.8-0.8,7.7-1.2,11.5-1.3C164,158.8,168.7,160.1,173.2,161.9z"/>
<path class="st4" d="M421.6,175.7c5.1-2.6,10.6-4.4,16.2-5.5c2.7-0.3,5.5-0.5,8.2-0.5c13.8,0.4,27.4,6.4,36.3,17.1
	c7.5,8.4,10.6,19.6,11.2,30.6c6.6,4.9,12.2,11.5,12.7,20.1v2.8c-0.9,11.2-10.1,20.4-21.1,22c-1.7,0-5,0.2-6.7,0.2
	c-5.8,0-11.5,0-17.3,0c-2.9,0-5.8,0-8.7,0c-5.8,0-11.7,0-17.5,0c-17.3-0.1-34.7,0.3-52-0.2c-14.1-0.4-27.6-10.6-30.9-24.5
	c-4.1-14.5,3.9-30.7,17.4-37c9.6-5.1,21-3.9,30.8-0.2c1-2.2,2.1-4.4,3.2-6.6c2.8-5.2,6.7-9.6,11.1-13.5
	C416.7,178.8,419.1,177.2,421.6,175.7z"/>
<path class="st4" d="M137.5,341.6c5.5-2.1,11.4-3.2,17.3-3.5c11.9,0.1,23.9,3.9,32.9,11.8c10.6,8.7,16,22.3,16.4,35.9
	c8.6,5.8,14.6,15.7,12.3,26.4c-1.6,5.8-5,10.8-9.7,14.4c-3,1.6-6.2,2.9-9.3,4.1c-8.9,0.5-17.7,0.2-26.6,0.3c-3.4,0-6.7,0-10.1,0
	c-23.1-0.2-46.2,0.5-69.2-0.3c-19.6-1.3-35-22.7-28.4-41.7c5.6-19.5,30-28.7,47.7-19.6c0.9-2.1,1.8-4.1,2.8-6.2
	c1.6-2.7,3.5-5.3,5.4-7.8c3.2-3.7,7-7,11.1-9.7C132.5,344.1,135,342.8,137.5,341.6z"/>
</svg>
