<?xml version="1.0" encoding="utf-8"?>
<!-- Generator: Adobe Illustrator 28.3.0, SVG Export Plug-In . SVG Version: 6.00 Build 0)  -->
<svg version="1.1" id="Capa_1" xmlns="http://www.w3.org/2000/svg" xmlns:xlink="http://www.w3.org/1999/xlink" x="0px" y="0px"
	 viewBox="0 0 600 600" style="enable-background:new 0 0 600 600;" xml:space="preserve">
<style type="text/css">
	.st0{fill:#B4B4B4;stroke:#B4B4B4;stroke-width:9.375000e-02;}
	.st1{fill:#FFFFFF;stroke:#FFFFFF;stroke-width:9.375000e-02;}
</style>
<g>
	<path class="st0" d="M225.2,142.3h17.1c35,1.9,67.9,20.9,89,48.7c-35.8,11.6-65.2,40.3-78.1,75.6c-20.4-9.1-44.1-11.7-65.5-4.8
		c-25.2,7.7-45.8,28.2-54.7,52.9c-8.5,23-5.9,49.3,5.2,71c-2.2,0-6.6,0-8.8-0.1c-26.2-4.7-48.1-27.8-51.2-54.4v-13.9
		c1.8-20.9,15-39.7,33-50c-1.6-28.1,8.4-56.1,25.5-78.2C157.5,161.7,190.7,144,225.2,142.3z"/>
	<path class="st1" d="M331.2,190.9c36.1-11.3,77.2-5.4,108.1,16.7c32.6,23.2,53.4,63.1,51.4,103.3c18.6,10.3,31.7,30.2,33,51.5v9
		c-1.6,30.6-29,57.4-59.7,58.3H214.3c-30.7,1-59.8-17.1-75.3-43.1c-3.2-0.3-6.5-0.6-9.7-1.2c2.2,0,6.6,0,8.8,0.1
		c-11.1-21.7-13.8-48-5.2-71c8.9-24.7,29.5-45.2,54.7-52.9c21.4-6.9,45.1-4.4,65.5,4.8C266,231.2,295.5,202.5,331.2,190.9z"/>
</g>
</svg>
