<?xml version="1.0" encoding="utf-8"?>
<!-- Generator: Adobe Illustrator 28.3.0, SVG Export Plug-In . SVG Version: 6.00 Build 0)  -->
<svg version="1.1" id="Capa_1" xmlns="http://www.w3.org/2000/svg" xmlns:xlink="http://www.w3.org/1999/xlink" x="0px" y="0px"
	 viewBox="0 0 600 600" style="enable-background:new 0 0 600 600;" xml:space="preserve">
<style type="text/css">
	.st0{opacity:0.36;fill:#FFED66;stroke:#FFED66;stroke-width:9.375000e-02;}
	.st1{opacity:0.75;fill:#FFED66;stroke:#FFED66;stroke-width:9.375000e-02;}
	.st2{fill:#FFED66;stroke:#FFED66;stroke-width:9.375000e-02;}
	.st3{fill:#FFFFFF;stroke:#FFFFFF;stroke-width:9.375000e-02;}
	.st4{fill:#B1DFF7;stroke:#B1DFF7;stroke-width:9.375000e-02;}
</style>
<g>
	<path class="st0" d="M149,103.9c17.6-11.6,38.7-17.8,59.8-17.5c23.3,0.2,46.5,8.3,64.8,22.9c17.3,13.6,30.2,32.6,36.4,53.8
		c2.1,6.6,2.8,13.5,4.4,20.2v19.5c-2.3,14-5.6,28.1-12.6,40.7c-13.1,24.8-36.4,43.9-63.2,51.9c-6.9,2.2-14.1,3-21.1,4.7H198
		c-13.5-2.3-27-5.3-39.2-11.8c-22.4-11.4-40.4-31-50-54.3c-9.6-23.1-10.6-49.7-2.9-73.5C113.2,137.3,128.8,117.1,149,103.9
		 M197.3,90.4c-35,3.1-67.4,25.8-82.6,57.5c-10.8,21.9-13.2,47.7-7.1,71.3c5.8,22.6,19.6,42.9,38.3,56.8
		c17.6,13.2,39.5,20.4,61.5,20.3c22,0.1,43.9-7.2,61.5-20.3c18.7-13.8,32.5-34.2,38.3-56.7c5.4-20.7,4.2-43.2-3.5-63.2
		c-8.2-21.4-23.7-39.8-43.4-51.5C241.7,93.2,219.2,88.3,197.3,90.4z"/>
	<path class="st1" d="M195.1,99c20.6-2.6,42,1.7,59.9,12.4c18.2,10.8,32.7,27.8,40.2,47.7c8.1,21.1,8.2,45.1,0.3,66.2
		c-6.5,17.7-18.5,33.4-33.9,44.3c-17.6,12.6-39.6,18.7-61.2,17.1c-20.8-1.4-41-9.9-56.4-23.9c-13.8-12.3-23.9-28.8-28.4-46.8
		c-6.2-24.2-2.4-50.8,10.6-72.1C140.7,119.4,166.8,102.3,195.1,99 M195.1,103.8c-30.3,3.8-57.6,24.3-69.9,52.2
		c-9.6,21.2-10.3,46.2-2.1,68c7.1,19.1,21,35.6,38.6,45.9c15.9,9.4,34.7,13.6,53.1,11.9c19.1-1.6,37.6-9.6,51.8-22.4
		c12.8-11.4,22.3-26.6,26.8-43.2c5.7-20.7,3.6-43.3-5.8-62.6c-8.5-17.7-23.2-32.5-40.8-41.2C230.9,104.4,212.6,101.4,195.1,103.8z"
		/>
	<path class="st2" d="M196.3,113.2c17.6-2.4,36,1.2,51.3,10.3c16.1,9.4,28.8,24.7,34.9,42.4c7,19.7,5.9,42.1-3.2,61
		c-7.7,16.3-21.1,29.8-37.3,37.7c-17.5,8.6-38.2,10.4-57,5c-16.9-4.7-32-15.3-42.4-29.4c-11-14.8-16.6-33.4-15.6-51.8
		c0.9-18.5,8.5-36.5,21-50C160.5,124.7,177.9,115.6,196.3,113.2z"/>
</g>
<g>
	<path class="st3" d="M308,144.9c30.6-13.9,67.3-13,97.2,2.1c39.3,19.1,64.9,62.2,63.2,105.9c23.5,12.4,36.2,41.7,28.6,67.3
		c-6.8,24.6-30.8,43.3-56.5,42.8c-76.5,0-153,0-229.4,0c-22.8,0.4-45.5-9.2-60.7-26.2c-17.3-18.6-24.6-45.8-19.2-70.5
		c0.5-2.3,1.1-4.5,1.7-6.7c0.7-2.2,1.5-4.4,2.3-6.6c1.2-2.8,2.4-5.5,3.8-8.1c1.1-2,2.2-3.9,3.4-5.8c11.6-17.7,30.3-30.6,51.1-34.7
		c17.8-3.7,36.5-0.7,52.8,7.2c7.3-19.2,19-36.8,35-49.8c2-1.7,3.9-3.4,6-5c2.6-2,5.4-3.8,8.3-5.5c2-1.2,4-2.3,6-3.4
		C303.8,146.8,305.9,145.8,308,144.9z"/>
	<path class="st4" d="M271.4,380.6c3-2.9,8.4-1.8,10.2,1.9c1.6,3,0,6.3-0.6,9.3c-6.1,22.1-11.7,44.3-17.9,66.3
		c-1.9,7.5-14.4,4.5-12.6-3.1c5.6-22,11.7-43.8,17.5-65.8C268.9,386.2,269,382.7,271.4,380.6z"/>
	<path class="st4" d="M315.2,380c4.5-0.7,8.7,4.2,6.9,8.6c-13.3,50-26.7,100-40.2,150c-0.5,5.6-8.4,8-11.7,3.4
		c-2.5-2.8-1.1-6.4-0.3-9.6c13.1-48.6,26.1-97.3,39.1-145.9C309.6,383.3,311.7,380.2,315.2,380z"/>
	<path class="st4" d="M346.4,380.9c3.3-3.2,9.6-1.1,10.5,3.4c0.7,3-0.8,6-1.4,9c-6,21.7-11.5,43.6-17.7,65.3
		c-1.3,4.7-8,5.8-11.1,2.2c-2.7-2.8-1.3-6.8-0.5-10c5.6-20.6,11.1-41.2,16.5-61.8C343.9,386.2,344,382.8,346.4,380.9z"/>
	<path class="st4" d="M383.9,380.6c4-4.7,12.6-0.3,11.1,5.7c-3.6,14.1-7.3,28.2-11.4,42.2c-2.2,6.1-12.5,4.3-12.4-2.3
		c2.1-11.9,6.2-23.4,9-35.2C381.2,387.5,381.5,383.5,383.9,380.6z"/>
</g>
</svg>
