<?xml version="1.0" encoding="utf-8"?>
<!-- Generator: Adobe Illustrator 28.3.0, SVG Export Plug-In . SVG Version: 6.00 Build 0)  -->
<svg version="1.1" id="Capa_1" xmlns="http://www.w3.org/2000/svg" xmlns:xlink="http://www.w3.org/1999/xlink" x="0px" y="0px"
	 viewBox="0 0 600 600" style="enable-background:new 0 0 600 600;" xml:space="preserve">
<style type="text/css">
	.st0{opacity:0.32;fill:#CDCFD2;stroke:#CDCFD2;stroke-width:9.375000e-02;enable-background:new    ;}
	.st1{opacity:0.69;fill:#CDCFD2;stroke:#CDCFD2;stroke-width:9.375000e-02;enable-background:new    ;}
	.st2{fill:#FFEE67;stroke:#FFEE67;stroke-width:9.375000e-02;}
	.st3{fill:#CDCFD2;stroke:#CDCFD2;stroke-width:9.375000e-02;}
	.st4{fill:#FFFFFF;stroke:#FFFFFF;stroke-width:9.375000e-02;}
	.st5{fill:#B1DFF7;stroke:#B1DFF7;stroke-width:9.375000e-02;}
</style>
<g>
	<path class="st0" d="M148.9,103.9c17.6-11.6,38.7-17.8,59.8-17.5c23.4,0.2,46.5,8.3,64.8,22.8c17.3,13.6,30.2,32.6,36.4,53.8
		c2.1,6.6,2.8,13.5,4.4,20.2v19.5c-2.3,14-5.6,28.1-12.6,40.7c-13.1,24.8-36.4,43.9-63.2,52c-6.9,2.2-14.1,3-21.1,4.7h-19.5
		c-13.5-2.3-27-5.3-39.2-11.8c-22.4-11.4-40.5-31-50-54.3c-9.6-23.2-10.6-49.7-3-73.5C113.2,137.4,128.7,117.1,148.9,103.9
		 M197.3,90.5c-35,3.2-67.4,25.8-82.6,57.5c-10.8,21.9-13.3,47.7-7,71.3c5.8,22.5,19.6,42.9,38.3,56.8
		c17.6,13.2,39.5,20.4,61.5,20.3c22,0.1,43.9-7.1,61.5-20.4c18.7-13.8,32.5-34.2,38.3-56.7c5.4-20.7,4.2-43.1-3.5-63.1
		c-8.2-21.4-23.7-39.8-43.4-51.5C241.7,93.2,219.1,88.3,197.3,90.5z"/>
	<path class="st1" d="M195,99c20.6-2.6,42,1.7,59.8,12.4c18.2,10.8,32.7,27.8,40.1,47.7c8.1,21.1,8.2,45.1,0.3,66.2
		c-6.5,17.7-18.5,33.4-33.9,44.2c-17.6,12.6-39.6,18.7-61.1,17.1c-20.8-1.3-41-9.9-56.4-23.9c-13.8-12.3-23.8-28.8-28.4-46.8
		c-6.2-24.1-2.4-50.8,10.6-72C140.7,119.4,166.8,102.4,195,99 M195,103.8c-30.2,3.7-57.6,24.3-69.9,52.2c-9.6,21.2-10.4,46.2-2.1,68
		c7.1,19.1,21,35.6,38.6,45.8c15.9,9.4,34.7,13.6,53.1,11.9c19.1-1.6,37.6-9.6,51.8-22.4c12.8-11.4,22.3-26.6,26.8-43.2
		c5.6-20.7,3.6-43.4-5.8-62.6c-8.5-17.8-23.2-32.5-40.8-41.2C230.8,104.4,212.6,101.5,195,103.8z"/>
	<path class="st2" d="M196.2,113.2c17.6-2.4,36,1.2,51.3,10.4c16.1,9.4,28.7,24.7,34.9,42.4c7,19.7,5.9,42.1-3.2,61
		c-7.7,16.3-21.1,29.8-37.3,37.7c-17.5,8.6-38.2,10.4-57,5c-16.8-4.7-32-15.3-42.4-29.4c-11-14.8-16.6-33.5-15.6-51.8
		c0.9-18.4,8.4-36.5,21-50C160.4,124.7,177.8,115.6,196.2,113.2z"/>
	<g>
		<path class="st3" d="M129.1,98.1h1.5c-0.2,0.3-0.7,0.9-0.9,1.2C129.5,99,129.3,98.4,129.1,98.1z"/>
		<path class="st4" d="M160.2,127.5c13.2-9.5,29.5-14.9,45.8-15c18.4-0.3,36.8,6.1,51.1,17.7c0.8,0.7,1.7,1.3,2.3,2.2
			c1,2.5,2.3,5,3.8,7.4c2.5,4,4.1,8.5,6.1,12.8c2,0.8,4.5,1.4,5.3,3.6c0.8,2.4-1.3,4.2-2.5,6c1.2,7.1,2.2,14.3,1.7,21.6
			c-0.2,6.2-1.6,12.2-3,18.2c2.3,2.4,5,5.7,3.1,9.2c-1.2,3.7-5.4,4.1-8.8,4.5c-6.2,12.8-16.3,23.6-28.2,31.3
			c-2.7,1.5-3.5,4.7-5.1,7.1c-5.2,7.9-16.4,11-24.8,6.6c-3.6-2.2-7.8-1.4-11.7-1.1c-1.5,1.3-2.7,3.5-4.9,3.3
			c-2.3,0.2-3.5-2.1-4.9-3.5c-8.3-1.4-16.7-3.2-24.4-6.8c-4.9-2.1-9.3-5.3-14.2-7.5c-5.9-5.9-10.1-13.4-13.5-21
			c-8.1-18.6-8.6-40.4-1.5-59.5C137.3,149.8,147.3,136.7,160.2,127.5 M183.5,132.5c-2.1,1.4-1.9,5,0.6,5.9c2.4,1.6,5.5-0.9,5-3.6
			C188.8,132.3,185.5,130.9,183.5,132.5 M200.9,134.2c-5,1.7-5.9,9.5-1.1,11.9c3.8,2.7,9.7,0.1,10.1-4.7
			C211,136.6,205.5,132.1,200.9,134.2 M183.6,154.6c-4.9,1.3-8.9,5.7-9.1,10.9c-1,6.4,4.2,12.5,10.5,13.4c6.7,1.3,13.6-4,14.2-10.8
			C200.5,159.7,191.7,151.8,183.6,154.6 M268.4,154.4c-1.1,0.7-1.6,2-1.7,3.3c0.2,2.9,4.4,4.6,6.2,2.1
			C275.5,157.1,271.5,152,268.4,154.4 M250.8,157c-6.6,1.1-9.9,10.2-5.2,15.1c3.7,4.7,11.9,4.1,14.9-1.1
			C264.9,164.7,258.4,154.9,250.8,157 M145.1,159.7c-2.3,0.9-2.7,4.6-0.7,6c1.8,1.7,5.4,0.6,5.5-2
			C150.5,161,147.6,158.4,145.1,159.7 M164.3,177.1c-3.2,0.8-5.3,4.6-3.9,7.6c1.5,4.2,8.4,4.7,10.2,0.5
			C172.8,181.3,168.6,175.8,164.3,177.1 M208.8,181.4c-2.9,0.7-4.8,3.9-3.8,6.8c1,4.1,7.4,5.1,9.5,1.4
			C217.2,186,213.2,180.1,208.8,181.4 M265.6,203.2c-3.9,1.1-5.3,6.9-1.9,9.4c3.1,3.1,9.2,0.9,9.3-3.5
			C273.5,205.3,269.4,201.7,265.6,203.2 M154.6,211.2c-1.6,0.3-2.6,1.7-3,3.1c-0.1,2.8,3.6,5.2,5.8,3
			C160.1,215.3,157.9,210.5,154.6,211.2 M242.2,216.5c-3.1,1.5-2.8,6.8,0.5,7.8c2.6,1.5,6.3-0.6,6-3.7
			C249.3,217.1,245,214.5,242.2,216.5 M211.5,225.2c-8.9,1.8-15.4,11-14.1,19.9c0.9,8.8,9.4,16,18.2,15.6
			c8.3,0.2,16.1-6.5,17.3-14.7c1.1-5.3-0.7-10.9-4-15C224.8,225.9,217.7,223.9,211.5,225.2 M188.9,255c-1.5,0.6-2.5,2.4-2,4
			c0.5,3.4,6.3,3.5,6.7,0C194.3,256.4,191.4,253.5,188.9,255z"/>
		<path class="st3" d="M183.5,132.5c2-1.6,5.3-0.2,5.5,2.3c0.5,2.6-2.5,5.2-5,3.6C181.6,137.5,181.4,133.9,183.5,132.5z"/>
		<path class="st3" d="M259.3,132.4c8.3,6.3,14.3,15.2,19.2,24.3c9.3,18.5,11,40.6,4.6,60.3c-5,15.8-15.2,29.9-28.5,39.8
			c-13.4,10-30.1,15.7-46.9,15.8c-19.4,0.3-38.8-6.8-53.3-19.6c-2.7-2.4-5.5-4.9-7.6-7.9c4.9,2.2,9.3,5.4,14.2,7.5
			c7.7,3.6,16.1,5.4,24.4,6.8c1.4,1.4,2.6,3.7,4.9,3.5c2.2,0.2,3.4-2,4.9-3.3c3.9-0.4,8.1-1.1,11.7,1.1c8.4,4.5,19.6,1.3,24.8-6.6
			c1.6-2.4,2.4-5.6,5.1-7.1c12-7.7,22-18.5,28.2-31.3c3.3-0.3,7.5-0.7,8.8-4.5c1.9-3.5-0.7-6.8-3.1-9.2c1.4-6,2.8-12.1,3-18.2
			c0.5-7.3-0.5-14.5-1.7-21.6c1.2-1.8,3.4-3.6,2.5-6c-0.8-2.3-3.3-2.8-5.3-3.6c-2-4.3-3.6-8.8-6.1-12.8
			C261.6,137.4,260.4,135,259.3,132.4z"/>
		<path class="st3" d="M200.9,134.2c4.6-2.2,10.1,2.4,9,7.3c-0.4,4.7-6.3,7.4-10.1,4.7C195,143.7,196,135.9,200.9,134.2z"/>
		<path class="st3" d="M183.6,154.6c8.1-2.7,16.9,5.2,15.5,13.5c-0.6,6.8-7.5,12.1-14.2,10.8c-6.3-0.8-11.5-6.9-10.5-13.4
			C174.7,160.3,178.7,155.9,183.6,154.6z"/>
		<path class="st3" d="M268.4,154.4c3.2-2.3,7.1,2.7,4.5,5.3c-1.8,2.5-6,0.8-6.2-2.1C266.8,156.4,267.3,155,268.4,154.4z"/>
		<path class="st3" d="M250.8,157c7.6-2.1,14,7.7,9.7,14c-3,5.2-11.1,5.8-14.9,1.1C240.9,167.2,244.2,158.1,250.8,157z"/>
		<path class="st3" d="M145.1,159.7c2.5-1.3,5.5,1.3,4.8,3.9c-0.1,2.6-3.7,3.7-5.5,2C142.4,164.3,142.8,160.7,145.1,159.7z"/>
		<path class="st3" d="M164.3,177.1c4.3-1.3,8.6,4.2,6.3,8.1c-1.8,4.2-8.7,3.7-10.2-0.5C159,181.6,161.1,177.9,164.3,177.1z"/>
		<path class="st3" d="M208.8,181.4c4.4-1.3,8.4,4.6,5.6,8.1c-2.1,3.7-8.4,2.7-9.5-1.4C204,185.3,205.9,182.1,208.8,181.4z"/>
		<path class="st3" d="M265.6,203.2c3.8-1.6,7.9,2,7.4,6c-0.1,4.4-6.3,6.6-9.3,3.5C260.4,210.1,261.7,204.3,265.6,203.2z"/>
		<path class="st3" d="M154.6,211.2c3.3-0.7,5.5,4.1,2.8,6.1c-2.2,2.2-5.9-0.2-5.8-3C151.9,212.9,153,211.4,154.6,211.2z"/>
		<path class="st3" d="M242.2,216.5c2.8-2,7.1,0.6,6.6,4.1c0.3,3.1-3.4,5.1-6,3.7C239.3,223.2,239,218,242.2,216.5z"/>
		<path class="st3" d="M211.5,225.2c6.3-1.3,13.3,0.8,17.5,5.8c3.3,4.1,5.1,9.7,4,15c-1.2,8.2-9,14.9-17.3,14.7
			c-8.8,0.4-17.3-6.7-18.2-15.6C196.1,236.1,202.6,226.9,211.5,225.2z"/>
		<path class="st3" d="M188.9,255c2.5-1.5,5.4,1.4,4.7,4c-0.3,3.5-6.2,3.4-6.7,0C186.3,257.4,187.4,255.7,188.9,255z"/>
	</g>
</g>
<g>
	<path class="st4" d="M308,144.9c30.6-13.9,67.3-13,97.2,2.1c39.3,19.1,64.9,62.2,63.2,105.9c23.5,12.4,36.2,41.7,28.6,67.3
		c-6.8,24.6-30.8,43.3-56.5,42.8c-76.5,0-153,0-229.4,0c-22.8,0.4-45.5-9.2-60.7-26.2c-17.3-18.6-24.6-45.8-19.2-70.5
		c0.5-2.3,1.1-4.5,1.7-6.7c0.7-2.2,1.5-4.4,2.3-6.6c1.2-2.8,2.4-5.5,3.8-8.1c1.1-2,2.2-3.9,3.4-5.8c11.6-17.7,30.3-30.6,51.1-34.7
		c17.8-3.7,36.5-0.7,52.8,7.2c7.3-19.2,19-36.8,35-49.8c2-1.7,3.9-3.4,6-5c2.6-2,5.4-3.8,8.3-5.5c2-1.2,4-2.3,6-3.4
		C303.8,146.8,305.9,145.8,308,144.9z"/>
	<path class="st5" d="M271.4,380.6c3-2.9,8.4-1.8,10.2,1.9c1.6,3,0,6.3-0.6,9.3c-6.1,22.1-11.7,44.3-17.9,66.3
		c-1.9,7.5-14.4,4.5-12.6-3.1c5.6-22,11.7-43.8,17.5-65.8C268.9,386.2,269,382.7,271.4,380.6z"/>
	<path class="st5" d="M315.2,380c4.5-0.7,8.7,4.2,6.9,8.6c-13.3,50-26.7,100-40.2,150c-0.5,5.6-8.4,8-11.7,3.4
		c-2.5-2.8-1.1-6.4-0.3-9.6c13.1-48.6,26.1-97.3,39.1-145.9C309.6,383.3,311.7,380.2,315.2,380z"/>
	<path class="st5" d="M346.4,380.9c3.3-3.2,9.6-1.1,10.5,3.4c0.7,3-0.8,6-1.4,9c-6,21.7-11.5,43.6-17.7,65.3
		c-1.3,4.7-8,5.8-11.1,2.2c-2.7-2.8-1.3-6.8-0.5-10c5.6-20.6,11.1-41.2,16.5-61.8C343.9,386.2,344,382.8,346.4,380.9z"/>
	<path class="st5" d="M383.9,380.6c4-4.7,12.6-0.3,11.1,5.7c-3.6,14.1-7.3,28.2-11.4,42.2c-2.2,6.1-12.5,4.3-12.4-2.3
		c2.1-11.9,6.2-23.4,9-35.2C381.2,387.5,381.5,383.5,383.9,380.6z"/>
</g>
</svg>
