<?xml version="1.0" encoding="utf-8"?>
<!-- Generator: Adobe Illustrator 28.3.0, SVG Export Plug-In . SVG Version: 6.00 Build 0)  -->
<svg version="1.1" id="Capa_1" xmlns="http://www.w3.org/2000/svg" xmlns:xlink="http://www.w3.org/1999/xlink" x="0px" y="0px"
	 viewBox="0 0 600 600" style="enable-background:new 0 0 600 600;" xml:space="preserve">
<style type="text/css">
	.st0{fill:#FFFFFF;stroke:#FFFFFF;stroke-width:9.375000e-02;}
	.st1{fill:#ADE8FF;stroke:#ADE8FF;stroke-width:9.375000e-02;}
</style>
<g>
	<path class="st0" d="M300.7,74.8c31.1-8.7,65.5-5,94,10.2c42.7,22,70,69.5,68.2,117.4c24,12.8,38.3,41.2,33.7,68.1
		c-4.5,31-33.6,56.1-65,55.5c-85.9,0.1-171.8,0-257.7,0c-24.8,0.4-49.6-9.9-66.7-28C82.7,273,75.5,233,89.6,200.9
		c10.6-25.1,33.2-44.8,59.6-51.6c21.5-5.8,44.9-3,64.6,7C227.4,117.3,260.7,85.6,300.7,74.8z"/>
	<path class="st1" d="M206.9,345.9c3.4-3.3,9.6-2.1,11.6,2.2c1.6,3.4-0.1,7-0.8,10.4c-6.9,24.7-13.1,49.7-20.1,74.4
		c-1.4,5.1-8.8,6.5-12.2,2.5c-3-2.8-1.8-7.2-0.9-10.6c6.3-23.3,12.5-46.5,18.7-69.8C204.2,351.9,204.4,348.3,206.9,345.9z"/>
	<path class="st1" d="M248.9,345c5.1-0.6,9.7,4.8,7.8,9.7c-10.8,40.7-21.6,81.4-32.7,122c-2,8.1-15.2,5.6-14.3-2.6
		c10.1-39.8,21.3-79.4,31.7-119.2C242.2,350.8,243.8,345.5,248.9,345z"/>
	<path class="st1" d="M290.7,345.2c5.2-0.8,9.9,4.9,7.8,9.8c-14.8,56-29.9,112-45,168c-0.5,4.6-5.7,8.4-10.2,6.2
		c-4.4-1.5-5.5-6.8-3.9-10.7c14.7-55.2,29.6-110.4,44.3-165.6C284.5,349.3,286.7,345.5,290.7,345.2z"/>
	<path class="st1" d="M326.1,346c5.5-4.8,14.5,2.1,11.4,8.7c-6.8,25.6-13.6,51.2-20.6,76.8c-0.6,5.1-6.8,8.8-11.2,5.6
		c-3.8-1.8-4.1-6.6-2.9-10.1c6.4-24,12.9-48,19.2-72C323.1,351.9,323.3,348.1,326.1,346z"/>
	<path class="st1" d="M362.9,345.6c4.2-2.8,10.2-0.2,11.2,4.6c0.3,3.5-1,6.8-1.8,10.1c-10.7,38.8-20.5,77.8-31.5,116.4
		c-3,8.6-17.1,3.2-13.6-5.3c10.3-39.4,21.1-78.6,31.5-118C359.6,350.7,360.2,347.4,362.9,345.6z"/>
	<path class="st1" d="M397.9,345.6c4.6-4.9,13.9,0,12.2,6.6c-3.8,15.6-8.1,31-12.4,46.4c-1.7,7.7-14.4,6.3-14.3-1.7
		c2.5-13.3,6.9-26.1,10-39.2C394.7,353.7,395,349,397.9,345.6z"/>
</g>
</svg>
