<?xml version="1.0" encoding="utf-8"?>
<!-- Generator: Adobe Illustrator 28.3.0, SVG Export Plug-In . SVG Version: 6.00 Build 0)  -->
<svg version="1.1" id="Capa_1" xmlns="http://www.w3.org/2000/svg" xmlns:xlink="http://www.w3.org/1999/xlink" x="0px" y="0px"
	 viewBox="0 0 600 600" style="enable-background:new 0 0 600 600;" xml:space="preserve">
<style type="text/css">
	.st0{fill:#FFFFFF;stroke:#FFFFFF;stroke-width:9.375000e-02;}
	.st1{fill:#FFF467;stroke:#FFF467;stroke-width:9.375000e-02;}
	.st2{fill:#ADE8FF;stroke:#ADE8FF;stroke-width:9.375000e-02;}
</style>
<path class="st0" d="M296.6,78.8C330,66,368.8,68.2,400.5,84.8c36.5,18.6,62.8,55.7,68.1,96.4c1.5,7.4,0.3,15.3,2,22.5
	c9.8,6.4,19,14.2,24.8,24.6c12.6,21,11.9,48.9-1.5,69.3c-8.6,13.7-22.7,23.5-38.1,28.1c8.9-17.6,18.1-35.1,27-52.7
	c-12.8,0-25.5,0-38.2,0c7.2-19.5,14.3-38.9,21.5-58.4c-29.4,0-58.8,0-88.2,0c-10.1,37.7-20.1,75.4-30.2,113.2c-51.7,0-103.4,0-155,0
	c-10.8,0-21.6,0.3-32.2-2c-24.6-5.1-46.5-21.3-58.9-43c-12.1-20.7-15.3-46.4-8.8-69.6c7.2-26.6,27.2-49.2,52.8-59.5
	c24.1-10.1,52.2-8.2,75.5,3.3C233.2,121.6,261.5,92,296.6,78.8z"/>
<path class="st1" d="M385,225.6c22.2,0,44.3,0,66.5,0c-7.3,19.5-14.5,38.9-21.8,58.4c12.2,0,24.4,0,36.6,0
	c-25.4,49.5-50.9,99-76.3,148.5c4-35.2,8.2-70.3,12.2-105.4c-14.8,0-29.5,0-44.3,0C366.9,293.3,375.9,259.4,385,225.6z"/>
<path class="st2" d="M173.9,347.2c3.3-3.2,9.3-2,11.4,2c1.7,3.4,0,7.2-0.7,10.7c-6.6,24-12.8,48.2-19.4,72.1
	c-0.6,5.9-8.7,8.8-12.7,4.2c-3.1-2.8-1.7-7.2-0.9-10.6c6.2-23.1,12.5-46.2,18.6-69.3C171.1,353.2,171.4,349.5,173.9,347.2z"/>
<path class="st2" d="M215.4,346.3c5.1-0.7,9.8,4.7,7.9,9.7c-10.1,38.7-20.8,77.3-30.9,116.1c-1.1,3.9-2.1,9.5-7.1,10.1
	c-5.5,1.5-10.5-4.9-8.2-10c10.4-39.4,21.1-78.8,31.6-118.2C209.3,350.4,211.5,346.9,215.4,346.3z"/>
<path class="st2" d="M257.2,346.5c5.1-0.7,9.7,4.8,7.7,9.7c-14.8,55.8-29.7,111.5-44.8,167.2c-0.6,5.7-7.8,9-12.1,5
	c-3.7-2.9-2.4-7.8-1.4-11.6c14.6-54.2,29.1-108.5,43.6-162.8C251,350.4,253.2,346.7,257.2,346.5z"/>
<path class="st2" d="M292.3,347.3c5.5-4.8,14.4,2.1,11.3,8.7c-6.7,25.4-13.5,50.8-20.4,76.2c-0.6,5.1-6.8,8.8-11.2,5.6
	c-3.7-1.8-4-6.6-2.8-10.1c6.3-23.8,12.8-47.6,19.1-71.4C289.4,353.3,289.5,349.4,292.3,347.3z"/>
<path class="st2" d="M328.9,346.9c5.8-4.1,13.8,2.9,10.8,9.2c-10.6,39.8-21.2,79.6-32,119.3c-0.7,5.5-7.8,8.4-12,4.6
	c-3.3-2.5-2.8-6.9-1.7-10.4c10.3-38.4,20.6-76.7,30.8-115.1C325.7,351.9,326.3,348.6,328.9,346.9z"/>
<path class="st2" d="M363.6,347.1c4.5-5.1,14.2-0.2,12.3,6.5c-3.7,15.3-8,30.6-12.2,45.8c-1.5,7.9-14.5,6.7-14.4-1.4
	c2-11.7,6-23,8.8-34.5C359.8,358.1,360.2,351.9,363.6,347.1z"/>
</svg>
