<?xml version="1.0" encoding="utf-8"?>
<!-- Generator: Adobe Illustrator 28.3.0, SVG Export Plug-In . SVG Version: 6.00 Build 0)  -->
<svg version="1.1" id="Capa_1" xmlns="http://www.w3.org/2000/svg" xmlns:xlink="http://www.w3.org/1999/xlink" x="0px" y="0px"
	 viewBox="0 0 600 600" style="enable-background:new 0 0 600 600;" xml:space="preserve">
<style type="text/css">
	.st0{fill:#FFFFFF;stroke:#FFFFFF;stroke-width:9.375000e-02;}
</style>
<g>
	<path class="st0" d="M292.4,139.4c32-11.8,68.6-9.9,99.2,5.2c45.1,21.4,74.2,70.6,72.4,120.4c21.6,12.1,35.8,36.3,34.4,61.2
		c-0.7,31.9-27.7,60.7-59.5,63.1c-17.7,0.8-35.4,0.2-53.1,0.3c-1.4-7.2-6.2-12.6-12.2-16.3c-0.8-6.9-3.9-14.1-10.7-16.9
		c-5.7-3-12-0.9-17.4,1.3c-5.6-3-11.2-6.1-16.8-9.2c5.7-2.9,11.4-6,17.1-9c12.2,7.6,28.2-2,27.8-16.1c9.4-4.5,15.7-16.7,9-26.1
		c-5.5-9.7-18.3-9.9-26.8-4.4c-5.3-2-11.4-3.8-16.8-1c-7,2.8-10.2,10.3-10.7,17.4c-5.2,3.3-10.5,6.5-15.8,9.6
		c0-6.3,0.1-12.5,0.1-18.8c5-3.9,10-9.1,9.7-16c0.4-6.9-4.4-12.2-9.5-16c1-10.7-7.4-22.1-18.8-21.1c-10.5,0.6-17.2,11.2-16.5,21.1
		c-5,3.9-9.9,9.1-9.5,15.9c-0.4,7,4.6,12.3,9.9,16.2c0,6.3,0,12.5-0.1,18.8c-5.3-3.1-10.6-6.3-15.7-9.7
		c0.6-14.1-15.5-23.8-27.6-16.3c-4.7-2-9.5-4.9-14.8-3.7c-9.9,1.4-17.3,12.5-13.9,22.1c1.4,5.7,6.7,8.8,11,12
		c0.6,7,3.7,14.4,10.6,17.2c5.5,2.9,11.7,1,17.1-1.2c6.1,3.1,12.2,6.1,18.3,9.1c-6,3.1-12,6.2-18,9.2c-5.3-2.2-11.5-4.3-17-1.5
		c-7,2.6-10.3,10-11,17c-6.1,3.7-10.9,9.3-12.4,16.4c-22.1-0.4-45.3,2.3-66-7.3C100.6,366.9,77.4,324,84.8,284
		c5.8-38.6,39.2-70.9,78.1-74.9c17.8-2.2,36,1.5,52,9.5C227.4,182.5,256.5,152.4,292.4,139.4z"/>
	<path class="st0" d="M288.4,261.1c2.5-5.7,11.6-5.3,13.5,0.6c0.7,4.6,0.5,9.3,0.6,13.9c3.9,1.6,10.5,2.9,9.7,8.5
		c0.6,5.6-6,6.8-9.9,8.4c0.2,14.3,0.1,28.6,0.1,43c12.4-7.2,24.9-14.3,37.3-21.6c-0.5-4.1-2.7-9.5,1.7-12.3c4.6-3.9,9.4,1,12.9,3.7
		c5.8-2.9,14.7-10.8,19.8-2.9c4.5,8.6-7,12.3-12.4,15.9c0.2,4,2.7,9.2-1.5,12c-4.7,4.3-9.6-0.8-13.2-3.7
		c-12.3,7.3-24.8,14.4-37.2,21.6c12.4,7.2,24.8,14.3,37.2,21.6c3.6-2.9,8.4-7.9,13.1-3.8c4.3,2.7,1.9,8,1.6,12
		c4.2,2.7,9,4.8,12.5,8.6c2.9,4.5-0.8,11.2-6.2,11.1c-5-0.9-9.2-4.2-13.7-6.5c-3.5,2.7-8.3,7.6-12.9,3.8c-4.4-2.7-2.3-8.2-1.7-12.3
		c-12.4-7.3-24.9-14.4-37.3-21.6c0,14.3,0.1,28.7-0.1,43c3.9,1.6,10.5,2.8,9.8,8.5c0.8,5.6-5.8,6.9-9.7,8.5
		c-0.3,6.6,1.9,15.5-5.8,18.8h-3.4c-7.6-3.2-5.4-12.1-5.8-18.6c-3.9-1.7-10.3-3-9.7-8.7c-0.5-5.6,6-6.8,9.9-8.5
		c-0.2-14.3,0-28.6-0.1-42.9c-12.4,7.2-24.9,14.3-37.3,21.6c0.4,4,2.7,9.4-1.6,12.1c-4.6,4.2-9.5-0.8-13.1-3.7
		c-3.8,2.2-7.5,4.6-11.7,6.2c-6,2.4-11.9-5.8-8.1-10.8c3.4-3.7,8.2-5.8,12.4-8.5c-0.5-4.1-2.7-9.5,1.8-12.2
		c4.7-3.8,9.3,1.2,12.9,3.9c12.3-7.2,24.8-14.3,37.1-21.5c-12.4-7.2-24.8-14.3-37.1-21.5c-3.6,2.7-8.2,7.7-12.9,3.9
		c-4.5-2.7-2.3-8.1-1.8-12.2c-4.2-2.6-8.9-4.8-12.4-8.4c-3.2-4.6,0.7-11.5,6.2-11.4c5,1.1,9.2,4.2,13.5,6.7
		c3.6-2.8,8.5-7.8,13.1-3.7c4.4,2.7,1.9,8.2,1.6,12.2c12.5,7.1,24.8,14.3,37.3,21.5c0-14.3-0.1-28.6,0.1-42.9
		c-3.9-1.7-10.3-2.9-9.9-8.5c-0.6-5.6,5.8-7,9.7-8.7C287.6,270.8,287.2,265.8,288.4,261.1z"/>
	<path class="st0" d="M260.3,389.3c5-4.7,11.4-7.5,17.3-10.8c0,3.7-0.1,7.4-0.1,11.2C271.8,389.6,266,389.7,260.3,389.3z"/>
	<path class="st0" d="M312.3,378.5c5.9,3.3,12.1,6.4,17.4,10.8c-5.8,0.4-11.6,0.3-17.4,0.3C312.3,385.9,312.3,382.2,312.3,378.5z"/>
</g>
</svg>
