<?xml version="1.0" encoding="utf-8"?>
<!-- Generator: Adobe Illustrator 28.3.0, SVG Export Plug-In . SVG Version: 6.00 Build 0)  -->
<svg version="1.1" id="Capa_1" xmlns="http://www.w3.org/2000/svg" xmlns:xlink="http://www.w3.org/1999/xlink" x="0px" y="0px"
	 viewBox="0 0 600 600" style="enable-background:new 0 0 600 600;" xml:space="preserve">
<style type="text/css">
	.st0{fill:#B4B4B4;stroke:#B4B4B4;stroke-width:9.375000e-02;}
	.st1{fill:#FFFFFF;stroke:#FFFFFF;stroke-width:9.375000e-02;}
	.st2{fill:#E0E0E0;stroke:#B4B4B4;stroke-width:9.375000e-02;}
</style>
<g>
	<path class="st0" d="M229.3,94.8h16c32.7,1.8,63.4,19.5,83.1,45.5c-33.4,10.8-60.9,37.6-72.9,70.6c-19-8.5-41.2-10.9-61.2-4.5
		c-23.5,7.2-42.8,26.3-51.1,49.4c-7.9,21.5-5.5,46,4.9,66.3c-2.1,0-6.2,0-8.2-0.1c-24.5-4.4-44.9-26-47.8-50.8v-13
		c1.7-19.5,14-37.1,30.8-46.7c-1.5-26.2,7.8-52.4,23.8-73C166.1,112.9,197.1,96.4,229.3,94.8z"/>
	<path class="st1" d="M328.2,140.2c33.7-10.6,72.1-5,100.9,15.6c30.4,21.7,49.9,58.9,48,96.5c17.4,9.6,29.6,28.2,30.8,48.1v8.4
		c-1.5,28.6-27.1,53.6-55.7,54.4H219.1c-28.7,0.9-55.8-16-70.3-40.2c-3-0.3-6.1-0.6-9.1-1.1c2.1,0,6.2,0,8.2,0.1
		c-10.4-20.3-12.9-44.8-4.9-66.3c8.3-23.1,27.5-42.2,51.1-49.4c20-6.4,42.1-4.1,61.2,4.5C267.4,177.8,294.9,151,328.2,140.2z"/>
</g>
<g>
	<path class="st2" d="M97.5,371.1c0.4-5.8,5.5-10.9,11.5-11.2c8.4-0.1,16.8,0.7,24.9,2.9c9,2.5,17.4,7.2,26.8,8.5
		c4.4,0.5,8.2,3.5,9.8,7.5c2.4,5.6-0.3,12.6-5.9,15.2c-4.4,2.4-9.5,0.9-14.1,0c-10.1-2.1-19-7.7-29.2-9.1c-4.1-0.7-8.3-0.7-12.4-0.9
		c-5.9-0.3-10.9-5.3-11.4-11V371.1z"/>
	<path class="st2" d="M201.5,365.4c10.6-4.3,22.2-5.6,33.6-5.4c8.7,0.1,17.6,1.3,25.8,4.2c7,2.4,13.8,5.6,21.1,6.8
		c8.1,1.4,16.5,1.4,24.7,0c9.4-1.6,17.7-6.3,26.9-8.6c7.5-1.9,15.3-2.5,23.1-2.5c7.2,0.1,14.5,0.7,21.5,2.5
		c8.8,2.2,16.9,6.6,25.8,8.3c13.4,2.6,27.7,1.3,40.2-4.1c11.5-4.8,24-7.2,36.5-6.6c5.7,0.7,10.3,5.8,10.6,11.4v1.5
		c-0.4,4.3-3.2,8.4-7.2,10.2c-4,1.8-8.6,0.8-12.9,1.5c-8.1,0.6-15.6,3.7-23.1,6.5c-13.8,5.4-29.1,6-43.8,4.4
		c-8.5-0.9-16.5-3.9-24.4-7c-12.2-4.8-26-5.5-38.8-2.9c-8.2,1.8-15.7,5.8-23.9,7.9c-8.7,2.3-17.8,2.8-26.8,2.6
		c-8-0.2-16.1-1.3-23.7-4c-8-2.8-15.9-6.5-24.4-7.4c-10.4-1.2-21.3-0.8-31.2,2.8c-5.6,2.1-12.5-0.4-15.2-5.7
		C192.7,376.1,195.4,368.1,201.5,365.4z"/>
	<path class="st2" d="M97.5,413.5c0.4-5.8,5.5-10.9,11.4-11.2c7.8-0.1,15.6,0.5,23.2,2.5c7.8,1.9,14.9,5.6,22.6,7.6
		c10.8,2.6,22.4,2.6,33.2,0c9.9-2.7,19.2-7.8,29.5-9c15.2-2,31.1-1.6,45.6,3.9c6.7,2.5,13.4,5.4,20.6,6.3c9.5,1.3,19.4,1,28.7-1.4
		c6-1.5,12.7,2.4,14.4,8.2c2.1,6-1.6,13.1-7.7,15c-7.7,2.3-15.8,3.1-23.8,3.1c-7.7,0-15.5-0.5-23-2.5c-9.2-2.3-17.5-7-26.9-8.6
		c-8.3-1.4-17-1.4-25.3,0.1c-6.6,1.2-12.7,4-19,6.2c-13.3,5-28,5.5-42,4.1c-8.9-0.8-17.3-4.1-25.6-7.3c-7.5-2.9-15.5-4.2-23.5-4.2
		c-6.2,0.1-11.8-5-12.3-11.1V413.5z"/>
	<path class="st2" d="M359.4,402.8c7.1-0.7,14.3,0.9,21.1,2.6c7.8,2.2,15.1,6.2,23.2,7.7c4.8,1,9.7,1.2,14.5,1.3
		c4.3,0.1,8.7,2.2,10.7,6c2.5,4.5,2,10.4-1.5,14.2c-2.5,2.7-6.3,4-9.9,3.9c-6.8,0-13.7-0.5-20.3-2c-11.4-2.4-21.6-8.9-33.4-9.7
		c-4-0.1-8.1-1.2-10.8-4.2c-4.3-4.4-4.2-12,0.2-16.3C354.8,404.6,357,403.3,359.4,402.8z"/>
	<path class="st2" d="M463.8,403.4c5.3-0.8,10.7-1.2,16.1-1.1c5.9,0.2,10.9,5.3,11.5,11.1v1.9c-0.4,4.3-3.2,8.3-7.2,10.2
		c-3.3,1.5-7,1-10.5,1.3c-3.7,0.1-7.6,1.3-11.2,0.1c-4.8-1.4-8.3-5.9-8.5-10.8C453.4,410.1,457.9,404.4,463.8,403.4z"/>
	<path class="st2" d="M97.5,455.9c0.4-5.8,5.5-10.9,11.5-11.2c7.1-0.1,14.3,0.4,21.2,2c6.1,1.3,11.8,3.8,17.6,5.9
		c11.9,4.6,25.1,5.2,37.5,2.8c10.2-2.2,19.4-7.6,29.8-9.3c12.7-2.1,25.9-2.1,38.4,0.7c3.8,0.6,7.3,3.1,9,6.5
		c2.5,4.6,1.4,10.8-2.6,14.3c-2.9,2.6-7.1,3.9-11,3c-8.8-2-18.1-2.2-27-0.9c-8.1,1.1-15.5,4.7-23.1,7.2c-8,2.8-16.5,3.8-24.9,4.1
		h-5.3c-6.4-0.2-12.8-0.8-19.1-2.3c-9.2-2.2-17.6-6.9-26.9-8.6c-4.6-0.9-9.2-1-13.8-1.2c-5.9-0.3-10.9-5.3-11.4-11V455.9z"/>
	<path class="st2" d="M327.3,449.1c8.4-3.1,17.4-4.3,26.3-4.4c9.3-0.2,18.7,0.6,27.6,3.3c6.7,2,12.9,5,19.7,6.8
		c10.2,2.5,21,2.6,31.3,0.5c8.7-1.9,16.6-6.2,25.2-8.3c7.3-1.8,15-2.4,22.5-2.3c6.1,0.2,11.2,5.6,11.5,11.5v1.4
		c-0.4,4.3-3.2,8.4-7.2,10.2c-2.5,1.2-5.4,1.1-8.1,1.2c-6.3,0.2-12.6,1.3-18.6,3.4c-6.5,2.3-12.8,5.1-19.5,6.6
		c-5.8,1.3-11.7,1.8-17.7,2h-5.2c-7.9-0.2-15.8-1.1-23.3-3.5c-8-2.6-15.7-6.4-24.1-7.7c-8.1-1.3-16.5-1.2-24.6,0.2
		c-7.9,1.4-15.1,5.1-22.7,7.5c-6.4,2-13.1,3-19.8,3.3c-4,0.3-8-1.6-10.4-4.7c-3.8-4.6-3.3-11.8,1-15.9c2.6-2.8,6.6-3.8,10.3-3.8
		C310.5,456,318.9,452.1,327.3,449.1z"/>
</g>
</svg>
