<?xml version="1.0" encoding="UTF-8" ?>
<!DOCTYPE svg PUBLIC "-//W3C//DTD SVG 1.1//EN" "http://www.w3.org/Graphics/SVG/1.1/DTD/svg11.dtd">
<svg viewBox="0 0 202 234" version="1.1" xmlns="http://www.w3.org/2000/svg">
<path fill="#333103" stroke="#333103" stroke-width="0.09375" opacity="0.20" d=" M 20.10 34.01 C 28.97 20.82 44.10 12.09 59.98 11.15 C 74.42 10.10 89.16 15.40 99.59 25.43 C 107.29 32.64 112.56 42.24 114.88 52.50 C 113.93 52.93 113.00 53.38 112.08 53.85 C 109.37 40.59 101.14 28.55 89.57 21.47 C 77.93 14.15 63.17 12.13 49.97 15.92 C 37.25 19.47 26.18 28.41 19.95 40.04 C 12.58 53.51 12.10 70.45 18.63 84.33 C 22.33 92.42 28.37 99.28 35.59 104.43 C 35.31 105.43 35.04 106.45 34.81 107.48 C 23.25 99.87 14.77 87.64 12.10 74.03 C 9.25 60.33 12.16 45.54 20.10 34.01 Z" />
<path fill="#999104" stroke="#999104" stroke-width="0.09375" opacity="0.60" d=" M 42.26 22.16 C 56.21 14.85 73.89 15.41 87.35 23.61 C 98.82 30.39 106.97 42.32 109.32 55.42 C 108.04 56.19 106.78 56.99 105.59 57.88 C 103.97 44.88 95.85 32.93 84.43 26.55 C 74.15 20.65 61.37 19.42 50.14 23.18 C 39.52 26.65 30.45 34.53 25.49 44.55 C 20.02 55.38 19.57 68.57 24.26 79.76 C 27.19 86.93 32.21 93.13 38.36 97.81 C 37.73 99.01 37.16 100.24 36.63 101.49 C 23.53 92.21 15.74 75.95 17.17 59.90 C 18.24 44.09 28.13 29.30 42.26 22.16 Z" />
<path fill="#ffec65" stroke="#ffec65" stroke-width="0.09375" opacity="1.00" d=" M 32.32 39.30 C 38.91 30.74 49.14 25.10 59.91 24.19 C 70.24 23.20 80.89 26.52 88.82 33.22 C 96.85 39.86 101.98 49.80 102.86 60.18 C 95.62 66.06 90.26 74.01 87.03 82.73 C 79.88 79.30 71.73 77.84 63.88 79.33 C 54.15 81.00 45.30 86.93 39.92 95.19 C 31.61 88.97 25.83 79.43 24.43 69.12 C 22.88 58.65 25.78 47.62 32.32 39.30 Z" />
<path fill="#ffffff" stroke="#ffffff" stroke-width="0.09375" opacity="1.00" d=" M 114.88 52.50 C 128.70 46.23 145.29 46.61 158.85 53.39 C 176.75 62.01 188.38 81.61 187.61 101.44 C 197.30 106.58 203.07 118.05 201.23 128.89 C 199.44 141.38 187.72 151.53 175.07 151.32 C 140.37 151.35 105.67 151.33 70.96 151.33 C 60.67 151.52 50.41 147.14 43.52 139.49 C 35.67 131.05 32.35 118.73 34.81 107.48 C 35.04 106.45 35.31 105.43 35.59 104.43 C 35.91 103.44 36.26 102.46 36.63 101.49 C 37.16 100.24 37.73 99.01 38.36 97.81 C 38.86 96.92 39.37 96.04 39.92 95.19 C 45.30 86.93 54.15 81.00 63.88 79.33 C 71.73 77.84 79.88 79.30 87.03 82.73 C 90.26 74.01 95.62 66.06 102.86 60.18 C 103.75 59.40 104.66 58.64 105.59 57.88 C 106.78 56.99 108.04 56.19 109.32 55.42 C 110.23 54.88 111.15 54.35 112.08 53.85 C 113.00 53.38 113.93 52.93 114.88 52.50 Z" />
<path fill="#ade8ff" stroke="#ade8ff" stroke-width="0.09375" opacity="1.00" d=" M 98.30 159.32 C 100.17 157.45 103.74 159.35 103.21 161.96 C 100.67 171.97 97.87 181.91 95.26 191.91 C 94.76 193.43 94.64 195.43 92.95 196.18 C 90.93 197.13 88.38 195.29 88.78 193.06 C 91.33 183.03 94.13 173.08 96.74 163.07 C 97.19 161.81 97.25 160.27 98.30 159.32 Z" />
<path fill="#ade8ff" stroke="#ade8ff" stroke-width="0.09375" opacity="1.00" d=" M 118.11 159.07 C 120.14 158.72 122.07 160.94 121.29 162.91 C 115.39 185.24 109.34 207.53 103.40 229.85 C 103.03 231.25 102.62 233.01 101.00 233.44 C 98.95 234.25 96.53 232.04 97.20 229.93 C 103.17 207.28 109.31 184.68 115.34 162.05 C 115.61 160.63 116.53 159.17 118.11 159.07 Z" />
<path fill="#ade8ff" stroke="#ade8ff" stroke-width="0.09375" opacity="1.00" d=" M 132.31 159.48 C 133.82 158.02 136.67 158.97 137.09 161.00 C 137.41 162.38 136.70 163.72 136.44 165.06 C 133.74 174.91 131.23 184.81 128.46 194.63 C 127.51 198.08 121.79 196.50 122.78 193.03 C 125.33 183.04 128.12 173.11 130.72 163.13 C 131.17 161.90 131.22 160.35 132.31 159.48 Z" />
<path fill="#ade8ff" stroke="#ade8ff" stroke-width="0.09375" opacity="1.00" d=" M 149.31 159.31 C 151.16 157.21 155.05 159.25 154.31 161.98 C 152.74 168.19 151.05 174.38 149.35 180.56 C 148.72 183.70 143.57 183.28 143.52 180.04 C 144.23 175.65 145.74 171.41 146.78 167.09 C 147.70 164.53 147.76 161.58 149.31 159.31 Z" />
</svg>
